<?xml version="1.0" standalone="no"?><!DOCTYPE svg PUBLIC "-//W3C//DTD SVG 1.1//EN" "http://www.w3.org/Graphics/SVG/1.1/DTD/svg11.dtd"><svg t="1700030704773" class="icon" viewBox="0 0 1024 1024" version="1.1" xmlns="http://www.w3.org/2000/svg" p-id="5480" xmlns:xlink="http://www.w3.org/1999/xlink" width="32" height="32"><path d="M960 428.8c0-19.2-12.8-32-25.6-38.4l-268.8-38.4-121.6-236.8c-6.4-6.4-12.8-12.8-19.2-12.8-12.8-12.8-32-6.4-44.8 12.8L358.4 352l-262.4 38.4c-6.4 0-12.8 6.4-19.2 6.4-19.2 12.8-12.8 38.4 0 51.2l192 185.6-44.8 262.4c0 6.4 0 12.8 6.4 19.2 6.4 19.2 32 19.2 44.8 12.8l236.8-128 243.2 121.6c6.4 6.4 12.8 6.4 19.2 6.4 19.2 0 32-19.2 25.6-38.4l-44.8-262.4 192-185.6c6.4 0 12.8-6.4 12.8-12.8z" fill="#EA741A" p-id="5481"></path></svg>