<?xml version="1.0" standalone="no"?><!DOCTYPE svg PUBLIC "-//W3C//DTD SVG 1.1//EN" "http://www.w3.org/Graphics/SVG/1.1/DTD/svg11.dtd"><svg t="1700031115102" class="icon" viewBox="0 0 1024 1024" version="1.1" xmlns="http://www.w3.org/2000/svg" p-id="6584" xmlns:xlink="http://www.w3.org/1999/xlink" width="32" height="32"><path d="M1015.552 398.848c-1.28-3.84-6.656-6.912-14.592-7.936l-284.672-41.472c-25.344-3.584-54.272-24.576-65.536-47.616L523.52 44.032c-3.584-7.168-8.192-11.52-12.032-11.52-4.096 0-8.448 4.352-12.032 11.52L371.968 302.08c-11.264 23.04-40.192 44.032-65.536 47.616L21.76 390.912c-7.936 1.28-13.568 4.096-14.592 7.936-1.28 3.84 1.536 9.472 7.168 15.104l124.928 121.856L220.16 614.912c18.432 17.92 29.44 51.712 25.088 77.056L196.608 975.36c-1.28 6.912-0.512 12.544 2.048 15.36 1.28 1.536 3.328 2.304 5.888 2.304 3.328 0 7.424-1.28 11.776-3.584l89.6-47.104 165.12-86.784c11.008-5.632 25.344-8.96 40.448-8.96s29.696 3.072 40.448 8.96l192.256 101.12 62.208 32.768c4.352 2.304 8.448 3.584 11.776 3.584 2.56 0 4.608-0.768 5.888-2.304 2.304-2.816 3.072-8.448 2.048-15.36l-48.64-283.392c-4.352-25.344 6.656-59.136 25.088-77.056l100.352-97.792 105.728-103.168c5.632-5.632 8.192-11.264 6.912-15.104z m0 0" fill="#E3E3E3" p-id="6585"></path><path d="M511.232 32.512c-4.096 0-8.448 4.352-12.032 11.52L371.968 302.08c-11.264 23.04-40.192 44.032-65.536 47.616L21.76 390.912c-7.936 1.28-13.568 4.096-14.592 7.936-1.28 3.84 1.536 9.472 7.168 15.104l124.928 121.856L220.16 614.912c18.432 17.92 29.44 51.712 25.088 77.056L196.608 975.36c-1.28 6.912-0.512 12.544 2.048 15.36 1.28 1.536 3.328 2.304 5.888 2.304 3.328 0 7.424-1.28 11.776-3.584l89.6-47.104 165.12-86.784c11.008-5.632 25.344-8.96 40.448-8.96v-814.08z m504.32 366.336" fill="#E89900" p-id="6586"></path></svg>