<?xml version="1.0" standalone="no"?><!DOCTYPE svg PUBLIC "-//W3C//DTD SVG 1.1//EN" "http://www.w3.org/Graphics/SVG/1.1/DTD/svg11.dtd"><svg t="1700031133881" class="icon" viewBox="0 0 1024 1024" version="1.1" xmlns="http://www.w3.org/2000/svg" p-id="6720" xmlns:xlink="http://www.w3.org/1999/xlink" width="32" height="32"><path d="M535.7568 812.1344l198.9632 120.0128c35.4304 21.4016 79.2576-10.3424 69.8368-50.688l-52.6336-226.304c-3.8912-16.896 1.8432-34.6112 14.9504-45.9776l175.7184-152.1664c31.3344-27.136 14.6432-78.5408-26.624-82.1248l-231.6288-19.8656c-17.3056-1.4336-32.3584-12.3904-39.1168-28.3648l-90.4192-213.4016c-16.1792-38.0928-70.144-38.0928-86.2208 0l-90.4192 213.4016c-6.7584 15.9744-21.8112 26.9312-39.1168 28.3648L107.2128 374.784c-41.2672 3.584-57.9584 54.9888-26.624 82.1248l175.7184 152.1664c13.1072 11.3664 18.8416 29.0816 14.9504 45.9776l-52.6336 226.304c-9.4208 40.3456 34.4064 72.0896 69.8368 50.688L487.424 812.1344C502.272 803.2256 520.9088 803.2256 535.7568 812.1344z" fill="#dbdbdb" p-id="6721"></path></svg>